<?xml version="1.0" standalone="no"?><!DOCTYPE svg PUBLIC "-//W3C//DTD SVG 1.1//EN" "http://www.w3.org/Graphics/SVG/1.1/DTD/svg11.dtd"><svg t="1741947754471" class="icon" viewBox="0 0 1024 1024" version="1.1" xmlns="http://www.w3.org/2000/svg" p-id="13600" xmlns:xlink="http://www.w3.org/1999/xlink" width="200" height="200"><path d="M623.7696 250.624H189.1328c-18.5344 0-33.4336 15.104-33.4336 33.792v66.2016a33.4848 33.4848 0 0 0 33.4336 33.792h434.6368v66.56c0 37.0176 23.9104 49.2032 53.504 27.0848l160.4608-120.3712c29.7472-22.3232 29.5424-58.0608 0-80.2304l-160.4608-120.3712c-29.7472-22.3232-53.504-10.0352-53.504 27.0336v66.5088z m0 0M391.936 773.376h434.6368c18.5344 0 33.4336-15.104 33.4336-33.792v-66.2016a33.4848 33.4848 0 0 0-33.4336-33.792H391.936v-66.56c0-37.0176-23.9104-49.2032-53.504-27.0848l-160.4608 120.3712c-29.7472 22.3232-29.5424 58.0608 0 80.2304l160.4608 120.3712c29.7472 22.3232 53.504 10.0352 53.504-27.0336v-66.5088z m0 0" fill="#1afa29" p-id="13601"></path></svg>