<?xml version="1.0" standalone="no"?><!DOCTYPE svg PUBLIC "-//W3C//DTD SVG 1.1//EN" "http://www.w3.org/Graphics/SVG/1.1/DTD/svg11.dtd"><svg t="1741948560251" class="icon" viewBox="0 0 1024 1024" version="1.1" xmlns="http://www.w3.org/2000/svg" p-id="16275" xmlns:xlink="http://www.w3.org/1999/xlink" width="200" height="200"><path d="M808.576 695.04c16.32 16.832 28.224 32.32 35.84 46.336 7.616 14.08 6.336 30.08-3.84 48.064a157.248 157.248 0 0 1-9.216 12.224 288.384 288.384 0 0 1-12.224 13.952c-4.224 4.48-8.448 8.576-12.672 12.16-4.224 3.712-7.68 6.4-10.56 8.064-14.08 8.448-30.592 10.688-49.728 6.72a100.608 100.608 0 0 1-51.456-28.672l-35.392-35.392-47.232-47.232-55.68-55.68-60.672-60.672-107.904 107.904c-33.216 33.216-60.16 60.48-80.96 81.792-21.376 21.376-42.624 34.56-63.68 39.68a58.944 58.944 0 0 1-56.064-14.336l-5.888-5.952-9.28-9.28-9.28-9.216a38.656 38.656 0 0 1-5.888-6.784 50.048 50.048 0 0 1-11.008-24 53.632 53.632 0 0 1 2.112-24.064 86.4 86.4 0 0 1 11.392-22.784c5.12-7.296 10.688-14.08 16.896-20.224 5.056-4.48 14.08-12.928 26.944-25.28l45.568-47.232A16199.488 16199.488 0 0 0 381.952 503.68a18863.36 18863.36 0 0 0-142.976-141.696 16546.88 16546.88 0 0 0-70.4-69.12c-14.592-14.592-22.08-29.12-22.4-43.456-0.256-14.272 4.672-28.8 14.784-43.392 4.48-5.632 11.008-12.224 19.392-19.84 8.448-7.552 14.336-12.48 17.728-14.72 16.896-11.264 32-16.192 45.568-14.72 13.44 1.344 26.944 9.088 40.448 23.168l26.112 26.112c12.928 12.928 28.992 28.672 48.064 47.232a30100.736 30100.736 0 0 1 139.136 135.744c21.376-21.376 42.304-42.176 62.848-62.4 20.48-20.224 39.68-39.232 57.344-56.96 17.664-17.664 33.728-33.536 48-47.616 14.4-14.08 26.304-25.856 35.84-35.392 13.568-12.928 28.16-21.504 43.904-25.728 15.744-4.224 30.912-0.64 45.504 10.56 0.64 0.576 2.432 1.92 5.504 4.224 3.072 2.24 6.208 4.736 9.28 7.552l8.832 8c2.816 2.56 4.8 4.096 5.888 4.672 15.232 14.592 22.656 30.464 22.4 47.616-0.32 17.152-7.744 33.024-22.4 47.68-10.112 10.112-22.592 22.72-37.504 37.952a4142.08 4142.08 0 0 1-49.728 49.728c-18.304 17.984-37.504 37.12-57.792 57.344L611.264 500.224l61.12 59.456c19.968 19.392 38.528 37.504 55.68 54.4 17.152 16.832 32.64 32.32 46.336 46.336 13.824 14.08 25.152 25.6 34.176 34.56z" p-id="16276" fill="#d81e06"></path></svg>