<?xml version="1.0" standalone="no"?><!DOCTYPE svg PUBLIC "-//W3C//DTD SVG 1.1//EN" "http://www.w3.org/Graphics/SVG/1.1/DTD/svg11.dtd"><svg t="1741947560147" class="icon" viewBox="0 0 1024 1024" version="1.1" xmlns="http://www.w3.org/2000/svg" p-id="6390" xmlns:xlink="http://www.w3.org/1999/xlink" width="200" height="200" transform="rotate(180)"><path d="M959.3 566.4c0 28.8-6.6 48.3-19.9 58.5-13.3 10.3-34.5 15.4-63.6 15.4h-62.6c-28.5 0-58.8 0.2-91 0.5-32.1 0.3-63.5 0.5-93.9 0.5h-72.6c-25.2 0-45.2 2.6-60.1 7.7-14.9 5.1-22 16.9-21.4 35.4 0 13.7-0.3 30-1 48.8-0.7 18.8-1 35.4-1 49.8 0 24-6.3 39.2-18.9 45.7-12.6 6.5-28.8 1.9-48.7-13.9-19.9-16.4-43.4-35.8-70.6-58s-54.8-45-83-68.3c-28.2-23.3-56-46.2-83.5-68.8-27.5-22.6-51.9-42.5-73.1-59.6-19.9-16.4-30-32-30.3-46.7-0.3-14.7 8.8-30 27.3-45.7 18.6-16.4 40.8-35.4 66.6-57s52.7-43.8 80.5-66.8 55.2-45.7 82-68.3 50.9-42.8 72.1-60.6c23.2-19.2 42.2-26.5 57.2-22.1s22.4 19 22.4 43.7v25.7c0 9.6 0.2 19.5 0.5 29.8s0.7 20.4 1 30.3c0.3 9.9 0.5 18.7 0.5 26.2 0.7 17.1 6 27.9 15.9 32.4s23.5 6.7 40.8 6.7c19.2 0 44.4-0.2 75.5-0.5s63.6-0.5 97.4-0.5c33.8 0 66.6-0.2 98.4-0.5 31.8-0.3 57.7-0.5 77.5-0.5 8.6 0 17.6 0.7 26.8 2.1 9.3 1.4 17.7 4.6 25.3 9.8 7.6 5.1 13.9 12.3 18.9 21.6s7.5 21.4 7.5 36.5c0 18.5 0.2 36.3 0.5 53.4 0.5 16.9 0.6 36.1 0.6 57.3z" fill="#1afa29" p-id="6391"></path></svg>